<svg height="800" width="800" xmlns="http://www.w3.org/2000/svg" viewBox="0 0 512.001 512.001" xml:space="preserve"><path d="M489.171 479.04c-11.55 0-21.056-5.853-28.083-12.396l-.643-4.423a91.167 91.167 0 0 0-30.564-55.828 91.042 91.042 0 0 0-18.278-12.269 41.55 41.55 0 0 0 22.33-32.073l.19-1.571c12.05-37.022 25.628-93.581 22.784-154.672-3.431-73.685-29.598-135.733-77.766-184.447.076-.661.125-1.33.125-2.013 0-9.624-7.801-17.425-17.425-17.425a17.36 17.36 0 0 0-12.172 4.968 10.967 10.967 0 0 0-3.62-4.716 10.978 10.978 0 0 0-8.516-1.998l-96.338 17.425c-3.856.698-7.047 3.396-8.378 7.081s-.765 7.801 1.758 10.8l1.648 2.16v22.201c0 3.576 2.175 6.929 5.101 8.985L277.969 94.3v29.615c-17.577 9.486-57.533 39.765-57.74 107.342a232.173 232.173 0 0 0 67.596-22.714c27.461-14.251 44.454-42.523 44.454-73.782 0-6.067 4.885-10.986 10.953-10.986s10.969 4.918 10.969 10.986c0 39.495-21.609 75.24-56.379 93.284-36.013 18.689-76.497 28.566-117.067 28.566-10.154 0-19.292 6.418-22.736 15.971-.007.02-.018.037-.024.057l-20.551 57.005c-8.873 3.294-18.403 4.213-27.817 2.655l-18.62-3.083a10.986 10.986 0 0 0-12.594 12.846l6.613 35.575a40.98 40.98 0 0 0 9.447 19.491 90.977 90.977 0 0 0-12.823 9.267 91.172 91.172 0 0 0-30.564 55.828l-.713 4.91c-6.968 6.343-16.284 11.91-27.545 11.91-9.101 0-16.479 7.378-16.479 16.479s7.378 16.479 16.479 16.479c16.539 0 32.648-6.229 46.633-17.82 13.988 11.589 30.1 17.82 46.639 17.82s32.648-6.229 46.631-17.82c13.989 11.589 30.101 17.82 46.639 17.82 16.535 0 32.643-6.228 46.63-17.812 13.987 11.585 30.097 17.812 46.63 17.812 16.538 0 32.646-6.23 46.631-17.82 13.989 11.589 30.101 17.82 46.639 17.82 16.539 0 32.648-6.229 46.633-17.82 13.988 11.589 30.1 17.82 46.639 17.82 9.101 0 16.479-7.378 16.479-16.479s-7.379-16.482-16.48-16.482zM304.428 44.354c-5.813 0-10.526-4.712-10.526-10.525 0-5.814 4.712-10.526 10.526-10.526s10.525 4.713 10.525 10.526c.001 5.813-4.711 10.525-10.525 10.525zm91.47 434.686c-15.207 0-26.883-10.144-34.001-18.655a16.475 16.475 0 0 0-25.282.003c-7.114 8.508-18.785 18.652-33.988 18.652-15.202 0-26.876-10.139-33.992-18.644a16.478 16.478 0 0 0-25.276 0c-7.118 8.505-18.79 18.644-33.992 18.644-15.207 0-26.883-10.144-34.001-18.655a16.477 16.477 0 0 0-25.283.003c-7.113 8.51-18.782 18.652-33.987 18.652-13.658 0-24.454-8.383-31.672-16.215 5.739-26.426 29.501-46.099 56.865-46.099h228.952c27.503 0 51.37 19.871 56.953 46.503-7.213 7.705-17.875 15.811-31.296 15.811z"/></svg>